#!OML:ASF F:\VICON\USERDATA\INSTALL\rory3\rory3.ASF
:FULLY-SPECIFIED
:DEGREES
496
root 0.20298 29.0819 -3.00557 -171.68 -1.56303 180.189
lowerback 7.34382 0.583955 -2.30844
upperback 0.593276 0.588213 1.43515
thorax -3.54477 0.31457 2.72545
lowerneck -18.7579 4.35763 -7.48704
upperneck 35.5003 6.79947 -0.729974
head 15.3968 0.734908 1.94815
rclavicle -4.52235e-015 -1.59028e-015
rhumerus -29.142 -1.17132 -81.4984
rradius 44.4793
rwrist 17.6154
rhand -21.2123 3.68757
rfingers 7.12502
rthumb 5.16941 -26.2294
lclavicle -4.52235e-015 -1.59028e-015
lhumerus -31.5281 6.58324 79.7079
lradius 35.2618
lwrist -2.51599
lhand -9.25636 26.2866
lfingers 7.12502
lthumb 16.6997 55.5883
rfemur -29.1149 3.26004 15.04
rtibia 47.6114
rfoot -18.1496 6.14735
rtoes -11.5314
lfemur -15.1498 -5.10522 -23.4511
ltibia 24.4718
lfoot -13.3474 -3.09644
ltoes -3.89934
497
root 0.218926 29.0964 -3.0579 -171.749 -1.95287 180.255
lowerback 7.2143 0.527148 -2.20984
upperback 0.492604 0.528781 1.48228
thorax -3.57219 0.287218 2.72515
lowerneck -18.6768 4.42382 -7.46074
upperneck 35.6534 6.85942 -0.747453
head 15.451 0.739783 1.9431
rclavicle 3.8763e-015 -7.55382e-015
rhumerus -29.1946 -1.43032 -81.3823
rradius 44.3726
rwrist 17.8224
rhand -21.4135 3.75716
rfingers 7.12502
rthumb 4.97507 -26.1644
lclavicle 3.8763e-015 -7.55382e-015
lhumerus -31.7055 6.24807 79.7166
lradius 35.4273
lwrist -2.20819
lhand -9.24482 26.4399
lfingers 7.12502
lthumb 16.7108 55.7407
rfemur -29.3372 3.98251 14.7271
rtibia 46.3375
rfoot -17.8006 6.97381
rtoes -11.6981
lfemur -14.5556 -5.27109 -23.2763
ltibia 23.7759
lfoot -13.2275 -3.36812
ltoes -3.6124
498
root 0.23633 29.1088 -3.10958 -171.918 -2.31372 180.265
lowerback 7.1979 0.471255 -2.22506
upperback 0.426523 0.457305 1.53785
thorax -3.62755 0.254735 2.7989
lowerneck -18.6352 4.52255 -7.52053
upperneck 35.8146 6.97312 -0.662606
head 15.5055 0.771357 2.0066
rclavicle 2.38542e-015 -9.54166e-015
rhumerus -29.0177 -1.64208 -81.2585
rradius 44.0881
rwrist 17.9574
rhand -21.548 3.84572
rfingers 7.12502
rthumb 4.8452 -26.0789
lclavicle 2.38542e-015 -9.54166e-015
lhumerus -31.937 6.06421 79.6894
lradius 35.5931
lwrist -1.97477
lhand -9.40833 26.3711
lfingers 7.12502
lthumb 16.5533 55.6851
rfemur -29.3726 4.7873 14.3385
rtibia 45.0128
rfoot -17.4648 7.93611
rtoes -11.1924
lfemur -13.8543 -5.2487 -23.1773
ltibia 23.0945
lfoot -13.0966 -3.80351
ltoes -3.44489
499
root 0.254978 29.1159 -3.16189 -172.071 -2.69801 180.171
lowerback 7.16729 0.406712 -2.3396
upperback 0.378869 0.365273 1.54058
thorax -3.6546 0.213027 2.87594
lowerneck -18.6596 4.66488 -7.41286
upperneck 36.023 7.15111 -0.718402
head 15.6127 0.825852 1.99601
rclavicle 4.22417e-015 1.47101e-014
rhumerus -28.9632 -1.68424 -81.1921
rradius 43.9162
rwrist 17.8126
rhand -21.5265 3.72257
rfingers 7.12502
rthumb 4.86596 -26.2016
lclavicle 4.22417e-015 1.47101e-014
lhumerus -32.1125 6.02003 79.5958
lradius 35.6885
lwrist -1.99389
lhand -9.56654 26.1303
lfingers 7.12502
lthumb 16.401 55.4569
rfemur -29.3682 5.5524 13.839
rtibia 43.6578
rfoot -17.0024 9.04372
rtoes -9.90451
lfemur -13.1866 -5.2264 -23.1899
ltibia 22.4632
lfoot -13.0507 -4.2419
ltoes -3.74336
500
root 0.274263 29.1219 -3.21355 -172.155 -3.17347 180.037
lowerback 7.09558 0.304169 -2.4211
upperback 0.311201 0.225815 1.48873
thorax -3.6752 0.14776 2.8823
lowerneck -18.599 4.81685 -7.05882
upperneck 36.1666 7.32256 -0.994505
head 15.6959 0.883761 1.84624
rclavicle -1.0138e-014 -1.19271e-014
rhumerus -29.1461 -1.76571 -81.1958
rradius 43.8505
rwrist 17.633
rhand -21.6332 3.63824
rfingers 7.12502
rthumb 4.76297 -26.2882
lclavicle -1.0138e-014 -1.19271e-014
lhumerus -32.1567 6.13348 79.4373
lradius 35.6956
lwrist -2.21496
lhand -9.49093 26.221
lfingers 7.12502
lthumb 16.4738 55.5416
rfemur -29.4033 6.34832 13.2713
rtibia 42.3009
rfoot -16.4642 10.1669
rtoes -8.67518
lfemur -12.6308 -5.21392 -23.2232
ltibia 21.857
lfoot -12.943 -4.82618
ltoes -3.89204
501
root 0.294188 29.1293 -3.26979 -172.219 -3.71018 179.988
lowerback 6.90179 0.212073 -2.40875
upperback 0.335181 0.108632 1.48787
thorax -3.53355 0.0871627 2.88546
lowerneck -18.7007 4.84105 -7.0187
upperneck 36.1564 7.40143 -1.05316
head 15.7184 0.918404 1.83303
rclavicle -1.49089e-016 3.57812e-015
rhumerus -29.1041 -2.09275 -81.0986
rradius 43.6709
rwrist 17.7381
rhand -21.5458 3.3697
rfingers 7.12502
rthumb 4.84731 -26.5549
lclavicle -1.49089e-016 3.57812e-015
lhumerus -32.0411 6.21216 79.391
lradius 35.8218
lwrist -2.34541
lhand -9.11234 26.6407
lfingers 7.12502
lthumb 16.8383 55.9306
rfemur -29.391 7.24914 12.7631
rtibia 40.9596
rfoot -16.0404 11.1339
rtoes -8.13309
lfemur -12.1095 -5.24171 -23.1427
ltibia 21.3117
lfoot -12.7872 -5.44238
ltoes -3.75797
502
root 0.316011 29.135 -3.32585 -172.318 -4.26366 179.999
lowerback 6.74617 0.0878274 -2.42859
upperback 0.345503 -0.0526545 1.58934
thorax -3.42456 0.00585802 3.017
lowerneck -18.7046 4.93398 -7.09753
upperneck 36.0994 7.6271 -1.17396
head 15.6886 0.988352 1.83451
rclavicle -9.0447e-015 -2.38542e-015
rhumerus -28.9992 -2.293 -80.8952
rradius 43.5157
rwrist 17.9981
rhand -21.3661 3.07566
rfingers 7.12502
rthumb 5.02088 -26.8449
lclavicle -9.0447e-015 -2.38542e-015
lhumerus -32.0612 6.46684 79.3713
lradius 35.9074
lwrist -2.28761
lhand -8.87551 26.571
lfingers 7.12502
lthumb 17.0663 55.8414
rfemur -29.3074 8.2322 12.3234
rtibia 39.6484
rfoot -15.7026 11.9556
rtoes -7.7828
lfemur -11.601 -5.25658 -22.9741
ltibia 20.8489
lfoot -12.6893 -6.1246
ltoes -3.50232
503
root 0.340207 29.1336 -3.37761 -172.366 -4.87226 179.903
lowerback 6.67467 -0.0803525 -2.60863
upperback 0.26117 -0.283111 1.70931
thorax -3.45436 -0.102589 3.26545
lowerneck -18.649 5.11576 -7.17597
upperneck 36.2322 7.93706 -1.28355
head 15.7339 1.06692 1.85108
rclavicle -1.74931e-014 6.75868e-015
rhumerus -29.0421 -2.39905 -80.6783
rradius 43.341
rwrist 18.1404
rhand -21.6113 3.06378
rfingers 7.12502
rthumb 4.78412 -26.8622
lclavicle -1.74931e-014 6.75868e-015
lhumerus -32.1773 6.81166 79.3455
lradius 35.8185
lwrist -2.19047
lhand -9.05283 26.458
lfingers 7.12502
lthumb 16.8956 55.743
rfemur -29.2856 9.11192 11.7873
rtibia 38.3839
rfoot -15.2351 12.7188
rtoes -7.06461
lfemur -11.2146 -5.27806 -22.9138
ltibia 20.4559
lfoot -12.6109 -6.79679
ltoes -3.19728
504
root 0.365085 29.1287 -3.42835 -172.39 -5.5448 179.723
lowerback 6.63938 -0.0850429 -2.70732
upperback 0.164919 -0.294453 1.58523
thorax -3.53353 -0.102173 3.19349
lowerneck -18.6778 5.10517 -6.9656
upperneck 36.4502 7.80583 -1.16565
head 15.8536 1.04229 1.846
rclavicle 1.27719e-014 -6.36111e-015
rhumerus -29.2862 -3.2427 -80.5339
rradius 43.1887
rwrist 18.1648
rhand -21.5573 3.06339
rfingers 7.12502
rthumb 4.83628 -26.8614
lclavicle 1.27719e-014 -6.36111e-015
lhumerus -32.0675 6.38095 79.3044
lradius 35.7145
lwrist -2.03237
lhand -9.27875 26.7668
lfingers 7.12502
lthumb 16.6781 56.0703
rfemur -29.2501 9.8991 11.1733
rtibia 37.1753
rfoot -14.6426 13.4769
rtoes -6.40241
lfemur -10.8777 -5.28446 -22.9359
ltibia 20.1187
lfoot -12.5803 -7.60961
ltoes -2.39123
505
root 0.389435 29.1277 -3.47974 -172.393 -6.27237 179.676
lowerback 6.5323 -0.258354 -2.74064
upperback 0.141912 -0.52279 1.65495
thorax -3.47916 -0.215115 3.30525
lowerneck -18.8956 5.18164 -7.11609
upperneck 36.5601 7.99945 -1.10953
head 15.9421 1.0998 1.93771
rclavicle 1.95803e-014 -1.03368e-014
rhumerus -29.2966 -3.48258 -80.3802
rradius 43.0025
rwrist 18.1241
rhand -21.4348 3.1385
rfingers 7.12502
rthumb 4.95456 -26.7836
lclavicle 1.95803e-014 -1.03368e-014
lhumerus -31.9958 6.62715 79.2952
lradius 35.7291
lwrist -2.03387
lhand -9.30914 27.2689
lfingers 7.12502
lthumb 16.6488 56.5749
rfemur -29.2062 10.6598 10.72
rtibia 36.0219
rfoot -13.8544 14.1651
rtoes -5.91728
lfemur -10.5987 -5.40928 -22.7979
ltibia 19.8091
lfoot -12.5323 -8.33707
ltoes -1.66027
506
root 0.413784 29.1292 -3.5351 -172.521 -6.95543 179.697
lowerback 6.48874 -0.371858 -2.71859
upperback 0.14356 -0.669953 1.73291
thorax -3.44097 -0.289326 3.38686
lowerneck -18.9009 5.2576 -7.0884
upperneck 36.5783 8.18382 -1.31714
head 15.9643 1.14405 1.8767
rclavicle -3.47873e-015 1.19271e-014
rhumerus -29.3825 -3.93199 -80.1529
rradius 42.8414
rwrist 18.2256
rhand -21.2886 3.07166
rfingers 7.12502
rthumb 5.0957 -26.8471
lclavicle -3.47873e-015 1.19271e-014
lhumerus -31.9232 6.90761 79.2869
lradius 35.6166
lwrist -2.13562
lhand -9.25349 27.186
lfingers 7.12502
lthumb 16.7024 56.4874
rfemur -29.0393 11.4741 10.3883
rtibia 34.9147
rfoot -12.8282 14.9259
rtoes -4.14563
lfemur -10.1974 -5.45008 -22.6105
ltibia 19.5399
lfoot -12.5453 -9.01796
ltoes -1.39482
